<?xml version="1.0" standalone="no"?>
<!DOCTYPE svg PUBLIC "-//W3C//DTD SVG 20010904//EN"
 "http://www.w3.org/TR/2001/REC-SVG-20010904/DTD/svg10.dtd">
<svg version="1.0" xmlns="http://www.w3.org/2000/svg"
 width="500.000000pt" height="500.000000pt" viewBox="0 0 500.000000 500.000000"
 preserveAspectRatio="xMidYMid meet">

<g transform="translate(0.000000,500.000000) scale(0.100000,-0.100000)"
fill="#000000" stroke="none">
<path d="M3140 2690 l0 -300 55 0 54 0 3 96 3 96 75 -96 74 -96 75 0 75 0 -25
28 c-95 104 -169 190 -169 197 0 7 21 31 150 178 l42 47 -75 0 -74 0 -69 -89
c-38 -50 -72 -90 -76 -90 -5 -1 -8 73 -8 164 l0 165 -55 0 -55 0 0 -300z"/>
<path d="M2200 2915 l0 -45 75 0 75 0 0 -240 0 -240 60 0 60 0 0 240 0 240 75
0 75 0 0 45 0 45 -210 0 -210 0 0 -45z"/>
<path d="M2798 2841 c-90 -29 -146 -102 -155 -198 -8 -85 11 -140 66 -194 91
-91 222 -90 314 1 65 65 63 80 -10 80 -49 0 -62 -4 -82 -25 -35 -37 -102 -35
-142 4 -16 16 -29 39 -29 50 0 20 6 21 163 23 l162 3 -2 57 c-3 87 -37 144
-107 180 -44 23 -137 32 -178 19z m150 -126 c42 -49 33 -55 -83 -55 -117 0
-125 5 -80 59 41 47 119 45 163 -4z"/>
<path d="M3778 2840 c-15 -4 -41 -18 -58 -30 l-30 -21 0 25 c0 25 -3 26 -55
26 l-55 0 0 -225 0 -225 55 0 55 0 0 118 c0 64 5 135 10 157 12 51 50 85 96
85 86 0 104 -39 104 -225 l0 -135 55 0 55 0 0 151 c0 87 -5 168 -12 191 -25
84 -130 135 -220 108z"/>
<path d="M4218 2836 c-84 -30 -132 -84 -150 -169 -32 -154 68 -281 222 -281
139 0 230 93 230 234 0 109 -56 186 -157 216 -57 17 -97 17 -145 0z m154 -125
c55 -62 45 -164 -21 -208 -42 -28 -76 -29 -119 -3 -39 24 -52 54 -52 124 0 85
46 130 125 121 29 -3 48 -12 67 -34z"/>
<path d="M1340 2100 c-42 -42 -10 -120 50 -120 34 0 70 38 70 73 0 36 -33 67
-70 67 -17 0 -39 -9 -50 -20z"/>
<path d="M2439 1820 c-140 -23 -231 -135 -231 -285 0 -119 54 -209 154 -259
62 -31 167 -35 241 -10 53 18 114 73 139 124 l17 35 -60 3 c-58 3 -63 1 -95
-32 -73 -75 -211 -56 -261 37 -25 47 -24 162 2 206 30 51 67 74 130 79 66 5
108 -10 136 -49 19 -27 25 -29 84 -29 l64 0 -10 30 c-15 41 -83 109 -132 130
-52 22 -118 29 -178 20z"/>
<path d="M3660 1755 c0 -52 -1 -55 -25 -55 -23 0 -25 -4 -25 -45 0 -41 2 -45
25 -45 l25 0 0 -132 c0 -116 3 -137 20 -166 25 -41 73 -62 140 -62 l50 0 0 50
0 50 -40 0 c-54 0 -60 16 -60 149 l0 111 50 0 50 0 0 45 0 45 -50 0 -50 0 0
55 0 55 -55 0 -55 0 0 -55z"/>
<path d="M2909 1682 c-44 -23 -59 -38 -82 -83 -53 -104 -33 -236 46 -306 33
-29 90 -53 127 -53 34 0 91 22 120 46 l30 26 0 -31 c0 -31 0 -31 55 -31 l55 0
0 225 0 225 -55 0 -55 0 0 -32 0 -31 -23 21 c-30 29 -89 52 -131 52 -18 0 -58
-13 -87 -28z m171 -85 c39 -19 70 -74 70 -122 0 -90 -85 -154 -162 -122 -46
19 -70 55 -75 115 -10 98 85 171 167 129z"/>
<path d="M3546 1700 c-16 -5 -42 -21 -57 -36 l-29 -28 0 32 0 32 -60 0 -60 0
0 -225 0 -225 60 0 60 0 0 139 c0 131 1 142 23 166 17 20 35 28 70 32 l48 6
-3 55 c-3 60 -8 65 -52 52z"/>
</g>
</svg>
